<?xml version="1.0" encoding="UTF-8" standalone="no"?>
<!-- Created with Inkscape (http://www.inkscape.org/) -->

<svg
   xmlns:dc="http://purl.org/dc/elements/1.1/"
   xmlns:cc="http://creativecommons.org/ns#"
   xmlns:rdf="http://www.w3.org/1999/02/22-rdf-syntax-ns#"
   xmlns:svg="http://www.w3.org/2000/svg"
   xmlns="http://www.w3.org/2000/svg"
   xmlns:sodipodi="http://sodipodi.sourceforge.net/DTD/sodipodi-0.dtd"
   xmlns:inkscape="http://www.inkscape.org/namespaces/inkscape"
   width="618.27301mm"
   height="684.10541mm"
   viewBox="0 0 2190.7311 2423.9955"
   id="svg2"
   version="1.1"
   inkscape:version="0.91 r13725"
   sodipodi:docname="logo.svg">
  <defs
     id="defs4" />
  <sodipodi:namedview
     id="base"
     pagecolor="#ffffff"
     bordercolor="#666666"
     borderopacity="1.0"
     inkscape:pageopacity="0.0"
     inkscape:pageshadow="2"
     inkscape:zoom="0.35"
     inkscape:cx="-664.36468"
     inkscape:cy="887.16173"
     inkscape:document-units="px"
     inkscape:current-layer="layer1"
     showgrid="false"
     fit-margin-top="0"
     fit-margin-left="0"
     fit-margin-right="0"
     fit-margin-bottom="0"
     inkscape:window-width="3070"
     inkscape:window-height="1752"
     inkscape:window-x="130"
     inkscape:window-y="48"
     inkscape:window-maximized="1" />
  <metadata
     id="metadata7">
    <rdf:RDF>
      <cc:Work
         rdf:about="">
        <dc:format>image/svg+xml</dc:format>
        <dc:type
           rdf:resource="http://purl.org/dc/dcmitype/StillImage" />
        <dc:title></dc:title>
      </cc:Work>
    </rdf:RDF>
  </metadata>
  <g
     inkscape:label="Layer 1"
     inkscape:groupmode="layer"
     id="layer1"
     transform="translate(756.67121,728.49417)">
    <path
       sodipodi:type="star"
       style="fill:#189bec;fill-opacity:1;stroke:#126da4;stroke-width:96.57953644;stroke-linecap:round;stroke-linejoin:round;stroke-miterlimit:4;stroke-dasharray:none;stroke-opacity:1"
       id="path4140"
       sodipodi:sides="6"
       sodipodi:cx="338.6944"
       sodipodi:cy="483.5036"
       sodipodi:r1="1163.708"
       sodipodi:r2="1007.8007"
       sodipodi:arg1="-2.6179939"
       sodipodi:arg2="-2.0943951"
       inkscape:flatsided="true"
       inkscape:rounded="0.09"
       inkscape:randomized="0"
       d="m -669.10631,-98.350381 c 52.36686,-90.702059 903.06696,-581.854019 1007.80068,-581.854029 104.73372,0 955.43383,491.15192 1007.80073,581.853985 52.3668,90.7020616 52.3669,1073.005945 0,1163.708025 -52.3669,90.702 -903.06696,581.854 -1007.80068,581.854 -104.73372,0 -955.43385,-491.1519 -1007.80071,-581.854 -52.36686,-90.70203 -52.36688,-1073.0059167 -2e-5,-1163.707981 z" />
    <g
       transform="translate(-28.571429,148.57143)"
       style="font-style:normal;font-variant:normal;font-weight:500;font-stretch:normal;font-size:525px;line-height:100%;font-family:Ubuntu;-inkscape-font-specification:'Ubuntu Medium';text-align:center;letter-spacing:0px;word-spacing:0px;text-anchor:middle;fill:#ffffff;fill-opacity:1;stroke:none;stroke-width:1px;stroke-linecap:butt;stroke-linejoin:miter;stroke-opacity:1"
       id="flowRoot4142">
      <path
         d="m -408.56113,172.18216 q 5.775,0.525 15.225,1.05 9.45,0 25.725,0 66.675,0 99.225,-33.6 33.075,-34.125 33.075,-95.025002 0,-61.95 -32.025,-95.025 -32.025,-33.075 -99.225,-33.075 -29.4,0 -42,1.575 l 0,254.100002 z m 242.55,-127.575002 q 0,47.25 -14.7,82.425002 -14.7,34.65 -42,58.275 -26.775,23.1 -65.1,34.65 -37.8,11.025 -84,11.025 -22.05,0 -49.875,-2.1 -27.825,-1.575 -53.025,-7.35 l 0,-353.325 q 25.2,-5.775 53.55,-7.35 28.35,-1.575 50.4,-1.575 45.675,0 83.475,11.025 37.8,10.5 64.575,33.599998 27.3,22.575 42,57.75 14.7,34.6499997 14.7,82.95 z"
         style=""
         id="path4141" />
      <path
         d="m 151.90918,89.232158 q 0,32.550002 -9.45,59.325002 -9.45,26.775 -26.775,45.675 -17.325,18.9 -42,29.4 -24.15,10.5 -53.55,10.5 -29.4000003,0 -53.55,-10.5 -24.15,-10.5 -41.475,-29.4 -17.325,-18.9 -27.3,-45.675 -9.45,-26.775 -9.45,-59.325002 0,-32.55 9.45,-58.8 9.975,-26.7750003 27.3,-45.675 17.85,-18.9 42,-28.875 24.1499997,-10.5 53.025,-10.5 28.875,0 53.025,10.5 24.675,9.975 42,28.875 17.325,18.8999997 26.775,45.675 9.975,26.25 9.975,58.8 z m -65.1,0 q 0,-40.95 -17.85,-64.575 -17.325,-24.15000028 -48.825,-24.15000028 -31.5,0 -49.35,24.15000028 -17.325,23.625 -17.325,64.575 0,41.475002 17.325,65.625002 17.85,24.15 49.35,24.15 31.5,0 48.825,-24.15 17.85,-24.15 17.85,-65.625002 z"
         style=""
         id="path4143" />
      <path
         d="m 202.12871,89.757158 q 0,-30.45 9.45,-56.7 9.45,-26.7750003 26.775,-46.2 17.85,-19.425 43.05,-30.45 25.2,-11.025 56.7,-11.025 38.85,0 73.5,14.175 l -13.65,51.975 q -11.025,-4.7250003 -25.2,-7.8750003 -13.65,-3.14999998 -29.4,-3.14999998 -37.275,0 -56.7,23.62500028 -19.425,23.1 -19.425,65.625 0,40.950002 18.375,65.100002 18.375,23.625 61.95,23.625 16.275,0 32.025,-3.15 15.75,-3.15 27.3,-7.875 l 8.925,52.5 q -10.5,5.25 -32.025,9.45 -21,4.2 -43.575,4.2 -35.175,0 -61.425,-10.5 -25.725,-11.025 -43.05,-29.925 -16.8,-19.425 -25.2,-45.675 -8.4,-26.775 -8.4,-57.750002 z"
         style=""
         id="path4145" />
      <path
         d="m 529.02324,59.307158 q 12.075,-12.6 25.725,-26.775 13.65,-14.7 26.775,-28.8750003 13.125,-14.6999997 24.675,-27.8249997 12.075,-13.65 20.475,-23.625 l 75.075,0 q -26.25,29.4 -55.65,60.9 -28.875,31.5 -58.275,61.425 15.75,13.125 33.075,32.025002 17.325,18.375 33.6,39.375 16.275,21 30.45,42 14.175,21 23.625,38.85 l -73.5,0 q -9.45,-16.275 -22.05,-34.125 -12.075,-17.85 -26.25,-34.65 -14.175,-16.8 -28.875,-31.5 -14.7,-15.225 -28.875,-25.725 l 0,126 -63.525,0 0,-396.9 63.525,-10.5 0,239.924998 z"
         style=""
         id="path4147" />
      <path
         d="m 727.12871,90.807158 q 0,-36.225 10.5,-63.525 11.025,-27.30000028 28.875,-45.15 17.85,-18.375 40.95,-27.3 23.1,-9.45 47.25,-9.45 56.7,0 88.2,35.175 32.025,35.175 32.025,105 0,5.25 -0.525,12.075 0,6.300002 -0.525,11.550002 l -181.125,0 q 2.625,33.075 23.1,51.45 21,17.85 60.375,17.85 23.1,0 42,-4.2 19.425,-4.2 30.45,-8.925 l 8.4,51.975 q -5.25,2.625 -14.7,5.775 -8.925,2.625 -21,4.725 -11.55,2.625 -25.2,4.2 -13.65,1.575 -27.825,1.575 -36.225,0 -63,-10.5 -26.775,-11.025 -44.1,-29.925 -17.325,-19.425 -25.725,-45.15 -8.4,-26.25 -8.4,-57.225002 z m 184.275,-28.35 q 0,-13.125 -3.675,-24.675 -3.675,-12.075 -11.025,-20.475 -6.825,-8.9250003 -17.325,-13.6500003 -9.975,-5.25 -24.15,-5.25 -14.7,0 -25.725,5.775 -11.025,5.25 -18.9,14.1750003 -7.35,8.925 -11.55,20.475 -4.2,11.55 -5.775,23.625 l 118.125,0 z"
         style=""
         id="path4149" />
      <path
         d="m 1198.2178,9.4321577 q -7.875,-2.625 -22.05,-5.25 -13.65,-3.15 -32.025,-3.15 -10.5,0 -22.575,2.1 -11.55,2.1 -16.275,3.675 l 0,219.9750023 -63.525,0 0,-261.450002 q 18.375,-6.825 45.675,-12.6 27.825,-6.3 61.425,-6.3 6.3,0 14.7,1.05 8.4,0.525 16.8,2.1 8.4,1.05 16.275,3.15 7.875,1.575 12.6,3.15 l -11.025,53.5499997 z"
         style=""
         id="path4151" />
      <path
         d="m -37.767578,387.95716 66.15,0 0,363.825 -66.15,0 0,-161.175 -158.025002,0 0,161.175 -66.15,0 0,-363.825 66.15,0 0,145.425 158.025002,0 0,-145.425 z"
         style=""
         id="path4153" />
      <path
         d="m 337.47617,743.38216 q -18.375,4.725 -47.775,9.45 -29.4,5.25 -64.575,5.25 -33.075,0 -55.65,-9.45 -22.05,-9.45 -35.7,-26.25 -13.125,-16.8 -18.9,-39.9 -5.775,-23.625 -5.775,-51.45 l 0,-153.825 63.525,0 0,143.85 q 0,44.1 12.6,63 13.125,18.9 45.15,18.9 11.55,0 24.15,-1.05 13.125,-1.05 19.425,-2.625 l 0,-222.075 63.525,0 0,266.175 z"
         style=""
         id="path4155" />
      <path
         d="m 468.71797,607.40716 q 0,40.425 17.325,59.325 17.85,18.375 45.675,18.375 15.225,0 28.35,-4.2 13.65,-4.2 22.05,-9.975 l 0,-142.275 q -6.825,-1.575 -16.8,-2.625 -9.975,-1.575 -25.2,-1.575 -34.65,0 -53.025,23.1 -18.375,22.575 -18.375,59.85 z m 176.925,116.55 q 0,65.625 -33.6,96.075 -33.075,30.45 -101.85,30.45 -25.2,0 -49.35,-4.2 -23.625,-4.2 -43.05,-11.025 l 11.55,-54.075 q 16.275,6.825 36.75,11.025 21,4.2 45.15,4.2 38.325,0 54.6,-15.75 16.275,-15.75 16.275,-46.725 l 0,-10.5 q -9.45,4.725 -25.2,9.45 -15.225,4.725 -35.175,4.725 -26.25,0 -48.3,-8.4 -21.525,-8.4 -37.275,-24.675 -15.225,-16.275 -24.15,-40.425 -8.4,-24.675 -8.4,-56.7 0,-29.925 8.925,-55.125 9.45,-25.2 26.775,-43.05 17.85,-17.85 43.05,-27.825 25.2,-9.975 57.225,-9.975 30.975,0 58.8,4.725 27.825,4.725 47.25,9.975 l 0,237.825 z"
         style=""
         id="path4157" />
      <path
         d="m 974.78516,614.23216 q 0,32.55 -9.45,59.325 -9.45,26.775 -26.775,45.675 -17.325,18.9 -42,29.4 -24.15,10.5 -53.55,10.5 -29.4,0 -53.55,-10.5 -24.15,-10.5 -41.475,-29.4 -17.325,-18.9 -27.3,-45.675 -9.45,-26.775 -9.45,-59.325 0,-32.55 9.45,-58.8 9.975,-26.775 27.3,-45.675 17.85,-18.9 42,-28.875 24.15,-10.5 53.025,-10.5 28.875,0 53.025,10.5 24.675,9.975 42,28.875 17.325,18.9 26.775,45.675 9.975,26.25 9.975,58.8 z m -65.1,0 q 0,-40.95 -17.85,-64.575 -17.325,-24.15 -48.825,-24.15 -31.5,0 -49.35,24.15 -17.325,23.625 -17.325,64.575 0,41.475 17.325,65.625 17.85,24.15 49.35,24.15 31.5,0 48.825,-24.15 17.85,-24.15 17.85,-65.625 z"
         style=""
         id="path4159" />
    </g>
  </g>
</svg>
